<svg width="32" height="32" viewBox="0 0 32 32" fill="none" xmlns="http://www.w3.org/2000/svg">
<g clip-path="url(#clip0_100_1264)">
<path d="M31.5255 7.29167C32.0285 8.08333 32.1417 8.97917 31.865 9.97917L26.6773 28.8542C26.4384 29.7431 25.9573 30.4896 25.2342 31.0938C24.5111 31.6979 23.7408 32 22.9233 32H5.5115C4.54313 32 3.60934 31.6285 2.71014 30.8854C1.81094 30.1424 1.18527 29.2292 0.833138 28.1458C0.531309 27.2153 0.518732 26.3333 0.79541 25.5C0.79541 25.4444 0.814274 25.2569 0.852003 24.9375C0.889732 24.6181 0.914884 24.3611 0.92746 24.1667C0.940037 24.0556 0.921172 23.9063 0.870867 23.7188C0.820562 23.5313 0.801698 23.3958 0.814274 23.3125C0.839427 23.1597 0.889732 23.0139 0.965189 22.875C1.04065 22.7361 1.1444 22.5729 1.27645 22.3854C1.4085 22.1979 1.51226 22.0347 1.58771 21.8958C1.87697 21.3681 2.15993 20.7326 2.43661 19.9896C2.71329 19.2465 2.90193 18.6111 3.00254 18.0833C3.04027 17.9444 3.04341 17.7361 3.01197 17.4583C2.98053 17.1806 2.97739 16.9861 3.00254 16.875C3.04027 16.7222 3.14717 16.5278 3.32323 16.2917C3.4993 16.0556 3.6062 15.8958 3.64393 15.8125C3.90803 15.3125 4.17213 14.6736 4.43623 13.8958C4.70033 13.1181 4.85754 12.4931 4.90784 12.0208C4.92042 11.8958 4.9047 11.6736 4.86068 11.3542C4.81666 11.0347 4.81981 10.8403 4.87011 10.7708C4.92042 10.5903 5.05876 10.3785 5.28513 10.1354C5.5115 9.89236 5.64984 9.73611 5.70014 9.66667C5.93909 9.30556 6.20634 8.71875 6.50188 7.90625C6.79742 7.09375 6.97035 6.42361 7.02065 5.89583C7.03323 5.78472 7.01436 5.60764 6.96406 5.36458C6.91375 5.12153 6.90118 4.9375 6.92633 4.8125C6.95148 4.70139 7.00807 4.57639 7.09611 4.4375C7.18414 4.29861 7.29733 4.13889 7.43567 3.95833C7.574 3.77778 7.6809 3.63194 7.75636 3.52083C7.85697 3.35417 7.96072 3.14236 8.06762 2.88542C8.17452 2.62847 8.26884 2.38542 8.35059 2.15625C8.43233 1.92708 8.53294 1.67708 8.65242 1.40625C8.77189 1.13542 8.89451 0.913194 9.02027 0.739583C9.14604 0.565972 9.31267 0.402778 9.52018 0.25C9.72769 0.0972222 9.95406 0.0173611 10.1993 0.0104167C10.4445 0.00347222 10.7432 0.0416667 11.0954 0.125L11.0765 0.1875C11.5544 0.0625 11.8751 0 12.0386 0H26.3944C27.325 0 28.0418 0.388889 28.5449 1.16667C29.0479 1.94444 29.1611 2.84722 28.8844 3.875L23.7156 22.75C23.2629 24.4028 22.8133 25.4688 22.3668 25.9479C21.9204 26.4271 21.1123 26.6667 19.9427 26.6667H3.54961C3.21005 26.6667 2.9711 26.7708 2.83276 26.9792C2.69442 27.2014 2.68813 27.5 2.8139 27.875C3.11573 28.8472 4.02122 29.3333 5.53037 29.3333H22.9422C23.3069 29.3333 23.659 29.2257 23.9986 29.0104C24.3381 28.7951 24.5582 28.5069 24.6588 28.1458L30.3181 7.58333C30.4062 7.27778 30.4376 6.88194 30.4125 6.39583C30.8904 6.60417 31.2614 6.90278 31.5255 7.29167ZM11.4538 7.33333C11.4035 7.51389 11.416 7.67014 11.4915 7.80208C11.567 7.93403 11.6927 8 11.8688 8H23.3383C23.5018 8 23.6622 7.93403 23.8194 7.80208C23.9766 7.67014 24.0803 7.51389 24.1306 7.33333L24.5268 6C24.5771 5.81944 24.5645 5.66319 24.4891 5.53125C24.4136 5.39931 24.2878 5.33333 24.1118 5.33333H12.6422C12.4787 5.33333 12.3184 5.39931 12.1612 5.53125C12.004 5.66319 11.9002 5.81944 11.8499 6L11.4538 7.33333ZM9.88803 12.6667C9.83773 12.8472 9.8503 13.0035 9.92576 13.1354C10.0012 13.2674 10.127 13.3333 10.303 13.3333H21.7726C21.9361 13.3333 22.0964 13.2674 22.2536 13.1354C22.4108 13.0035 22.5146 12.8472 22.5649 12.6667L22.961 11.3333C23.0113 11.1528 22.9988 10.9965 22.9233 10.8646C22.8479 10.7326 22.7221 10.6667 22.546 10.6667H11.0765C10.913 10.6667 10.7527 10.7326 10.5954 10.8646C10.4382 10.9965 10.3345 11.1528 10.2842 11.3333L9.88803 12.6667Z" fill="#FFF3EC"/>
</g>
<defs>
<clipPath id="clip0_100_1264">
<rect width="32" height="32" fill="white"/>
</clipPath>
</defs>
</svg>
