<svg width="32" height="32" viewBox="0 0 32 32" fill="none" xmlns="http://www.w3.org/2000/svg">
<path fill-rule="evenodd" clip-rule="evenodd" d="M8.00006 2.66675C6.9392 2.66675 5.92178 3.08818 5.17163 3.83832C4.42149 4.58847 4.00006 5.60588 4.00006 6.66675V25.3334C4.00006 26.3943 4.42149 27.4117 5.17163 28.1618C5.92178 28.912 6.9392 29.3334 8.00006 29.3334H16.0001C17.0609 29.3334 18.0783 28.912 18.8285 28.1618C19.5786 27.4117 20.0001 26.3943 20.0001 25.3334V6.66675C20.0001 5.60588 19.5786 4.58847 18.8285 3.83832C18.0783 3.08818 17.0609 2.66675 16.0001 2.66675H8.00006ZM21.7241 9.72408C21.9741 9.47412 22.3132 9.3337 22.6667 9.3337C23.0203 9.3337 23.3594 9.47412 23.6094 9.72408L28.9427 15.0574C29.1927 15.3075 29.3331 15.6465 29.3331 16.0001C29.3331 16.3536 29.1927 16.6927 28.9427 16.9427L23.6094 22.2761C23.3579 22.519 23.0211 22.6534 22.6715 22.6503C22.3219 22.6473 21.9875 22.5071 21.7403 22.2598C21.4931 22.0126 21.3529 21.6782 21.3498 21.3286C21.3468 20.979 21.4812 20.6422 21.7241 20.3907L24.7814 17.3334H13.3334C12.9798 17.3334 12.6406 17.1929 12.3906 16.9429C12.1405 16.6928 12.0001 16.3537 12.0001 16.0001C12.0001 15.6465 12.1405 15.3073 12.3906 15.0573C12.6406 14.8072 12.9798 14.6667 13.3334 14.6667H24.7814L21.7241 11.6094C21.4741 11.3594 21.3337 11.0203 21.3337 10.6667C21.3337 10.3132 21.4741 9.97412 21.7241 9.72408Z" fill="#FFF3EC"/>
</svg>
