<svg width="32" height="32" viewBox="0 0 32 32" fill="none" xmlns="http://www.w3.org/2000/svg">
<path fill-rule="evenodd" clip-rule="evenodd" d="M3.20001 12.8C3.20001 12.3757 3.36858 11.9687 3.66864 11.6687C3.9687 11.3686 4.37567 11.2 4.80001 11.2H21.2928C21.7172 11.2 22.1241 11.3686 22.4242 11.6687C22.7242 11.9687 22.8928 12.3757 22.8928 12.8C22.8928 13.2244 22.7242 13.6314 22.4242 13.9314C22.1241 14.2315 21.7172 14.4 21.2928 14.4H4.80001C4.37567 14.4 3.9687 14.2315 3.66864 13.9314C3.36858 13.6314 3.20001 13.2244 3.20001 12.8ZM3.20001 6.40005C3.20001 5.9757 3.36858 5.56874 3.66864 5.26868C3.9687 4.96862 4.37567 4.80005 4.80001 4.80005H27.2C27.6244 4.80005 28.0313 4.96862 28.3314 5.26868C28.6314 5.56874 28.8 5.9757 28.8 6.40005C28.8 6.8244 28.6314 7.23136 28.3314 7.53142C28.0313 7.83148 27.6244 8.00005 27.2 8.00005H4.80001C4.37567 8.00005 3.9687 7.83148 3.66864 7.53142C3.36858 7.23136 3.20001 6.8244 3.20001 6.40005ZM3.20001 19.2C3.20001 18.7757 3.36858 18.3687 3.66864 18.0687C3.9687 17.7686 4.37567 17.6 4.80001 17.6H27.2C27.6244 17.6 28.0313 17.7686 28.3314 18.0687C28.6314 18.3687 28.8 18.7757 28.8 19.2C28.8 19.6244 28.6314 20.0314 28.3314 20.3314C28.0313 20.6315 27.6244 20.8 27.2 20.8H4.80001C4.37567 20.8 3.9687 20.6315 3.66864 20.3314C3.36858 20.0314 3.20001 19.6244 3.20001 19.2ZM3.20001 25.6C3.20001 25.1757 3.36858 24.7687 3.66864 24.4687C3.9687 24.1686 4.37567 24 4.80001 24H21.2928C21.7172 24 22.1241 24.1686 22.4242 24.4687C22.7242 24.7687 22.8928 25.1757 22.8928 25.6C22.8928 26.0244 22.7242 26.4314 22.4242 26.7314C22.1241 27.0315 21.7172 27.2 21.2928 27.2H4.80001C4.37567 27.2 3.9687 27.0315 3.66864 26.7314C3.36858 26.4314 3.20001 26.0244 3.20001 25.6Z" fill="#002966"/>
</svg>
