<svg width="33" height="32" viewBox="0 0 33 32" fill="none" xmlns="http://www.w3.org/2000/svg">
<g clip-path="url(#clip0_100_1256)">
<path d="M18.2793 2.92023e-06C18.7497 2.92023e-06 19.1705 0.292803 19.3289 0.731203L20.4585 3.8624C20.8633 3.9632 21.2105 4.064 21.5049 4.1696C21.8265 4.2848 22.2409 4.4592 22.7529 4.6976L25.3833 3.3056C25.598 3.19185 25.8438 3.15079 26.0838 3.18859C26.3238 3.22638 26.5451 3.34098 26.7145 3.5152L29.0281 5.9072C29.3353 6.2256 29.4217 6.6912 29.2489 7.0976L28.0153 9.9888C28.2201 10.3648 28.3833 10.6864 28.5081 10.9552C28.6425 11.248 28.8089 11.6512 29.0073 12.1712L31.8825 13.4032C32.3145 13.5872 32.5817 14.0192 32.5529 14.4816L32.3417 17.8016C32.3272 18.0173 32.2498 18.224 32.119 18.3961C31.9881 18.5681 31.8097 18.698 31.6057 18.7696L28.8825 19.7376C28.8041 20.1136 28.7225 20.4352 28.6361 20.7072C28.4967 21.1273 28.3376 21.5405 28.1593 21.9456L29.5273 24.9696C29.6238 25.1821 29.6498 25.4199 29.6015 25.6482C29.5531 25.8765 29.4329 26.0833 29.2585 26.2384L26.6569 28.5616C26.4855 28.714 26.2718 28.8103 26.0441 28.8378C25.8165 28.8652 25.5859 28.8225 25.3833 28.7152L22.7017 27.2944C22.2821 27.5165 21.8493 27.7126 21.4057 27.8816L20.2345 28.32L19.1945 31.2C19.1174 31.4109 18.9784 31.5936 18.7956 31.7241C18.6129 31.8546 18.395 31.9268 18.1705 31.9312L15.1305 32C14.9 32.0061 14.6734 31.9405 14.4817 31.8124C14.29 31.6844 14.1427 31.5 14.0601 31.2848L12.8345 28.0416C12.4163 27.8987 12.0023 27.744 11.5929 27.5776C11.258 27.4327 10.9282 27.2763 10.6041 27.1088L7.56408 28.408C7.36377 28.4935 7.14294 28.5188 6.92847 28.4811C6.714 28.4433 6.51513 28.344 6.35608 28.1952L4.10648 26.0848C3.939 25.9284 3.82493 25.7232 3.78043 25.4984C3.73592 25.2736 3.76323 25.0405 3.85848 24.832L5.16568 21.984C4.99183 21.6467 4.83065 21.303 4.68248 20.9536C4.50952 20.526 4.34945 20.0932 4.20248 19.656L1.33848 18.784C1.10568 18.7136 0.902633 18.5684 0.760866 18.3708C0.619098 18.1732 0.546548 17.9343 0.554482 17.6912L0.666482 14.6176C0.674454 14.4171 0.737101 14.2225 0.847647 14.055C0.958193 13.8875 1.11243 13.7534 1.29368 13.6672L4.29848 12.224C4.43768 11.7136 4.55928 11.3168 4.66648 11.0272C4.81743 10.6404 4.98505 10.2603 5.16888 9.888L3.86648 7.136C3.76764 6.92701 3.73763 6.69207 3.78075 6.46494C3.82388 6.23782 3.93792 6.03022 4.10648 5.872L6.35288 3.7504C6.51036 3.60188 6.70739 3.50202 6.92029 3.46285C7.13318 3.42368 7.35285 3.44686 7.55288 3.5296L10.5897 4.784C10.9257 4.56 11.2297 4.3792 11.5049 4.2336C11.8329 4.0592 12.2713 3.8768 12.8233 3.68L13.8793 0.734403C13.9574 0.518832 14.1001 0.332613 14.2879 0.201173C14.4758 0.0697323 14.6996 -0.000522001 14.9289 2.92023e-06H18.2793ZM16.5929 11.2304C13.9257 11.2304 11.7641 13.3664 11.7641 16.0032C11.7641 18.64 13.9257 20.7776 16.5929 20.7776C19.2585 20.7776 21.4201 18.64 21.4201 16.0032C21.4201 13.3664 19.2601 11.2304 16.5929 11.2304Z" fill="#FFF3EC"/>
</g>
<defs>
<clipPath id="clip0_100_1256">
<rect width="32" height="32" fill="white" transform="translate(0.55426)"/>
</clipPath>
</defs>
</svg>
